<?xml version="1.0" standalone="no"?><!DOCTYPE svg PUBLIC "-//W3C//DTD SVG 1.1//EN" "http://www.w3.org/Graphics/SVG/1.1/DTD/svg11.dtd"><svg t="1542695998208" class="icon" style="" viewBox="0 0 1024 1024" version="1.1" xmlns="http://www.w3.org/2000/svg" p-id="6423" xmlns:xlink="http://www.w3.org/1999/xlink" width="200" height="200"><defs><style type="text/css"></style></defs><path d="M498.346667 337.92c23.893333 0 40.96-17.066667 40.96-40.96s-17.066667-40.96-40.96-40.96-47.786667 17.066667-47.786667 40.96c0 27.306667 23.893333 40.96 47.786667 40.96zM310.613333 296.96c0-23.893333-17.066667-40.96-40.96-40.96-23.893333 3.413333-47.786667 17.066667-47.786666 40.96s23.893333 40.96 47.786666 40.96 40.96-13.653333 40.96-40.96z" fill="#cccccc" p-id="6424"></path><path d="M996.693333 600.746667c0-129.706667-116.053333-242.346667-266.24-256C696.32 204.8 546.133333 98.986667 375.466667 98.986667 184.32 98.986667 27.306667 232.106667 27.306667 399.36c0 88.746667 44.373333 167.253333 126.293333 228.693333l-27.306667 85.333334c-3.413333 6.826667 0 17.066667 6.826667 20.48 6.826667 6.826667 13.653333 6.826667 20.48 3.413333L262.826667 682.666667h13.653333c34.133333 6.826667 64.853333 13.653333 98.986667 13.653333h30.72c3.413333 0 6.826667 0 6.826666-3.413333 44.373333 98.986667 153.6 167.253333 279.893334 167.253333 30.72 0 64.853333-6.826667 95.573333-13.653333l81.92 44.373333c3.413333 0 6.826667 3.413333 10.24 3.413333 3.413333 0 10.24 0 13.653333-3.413333 6.826667-6.826667 10.24-13.653333 6.826667-20.48l-20.48-68.266667c75.093333-61.44 116.053333-133.12 116.053333-201.386666z m-798.72 23.893333c3.413333-6.826667 0-17.066667-6.826666-23.893333C109.226667 546.133333 68.266667 474.453333 68.266667 395.946667 68.266667 252.586667 204.8 136.533333 375.466667 136.533333c146.773333 0 279.893333 88.746667 307.2 204.8-160.426667 3.413333-286.72 119.466667-286.72 256 0 17.066667 3.413333 34.133333 6.826666 51.2H375.466667c-34.133333 0-61.44-6.826667-92.16-13.653333l-17.066667-3.413333c-3.413333 0-10.24 0-13.653333 3.413333l-71.68 34.133333 17.066666-44.373333z m641.706667 170.666667l10.24 34.133333-47.786667-27.306667c-3.413333 0-6.826667-3.413333-10.24-3.413333h-3.413333c-30.72 6.826667-61.44 17.066667-92.16 17.066667-143.36 0-259.413333-98.986667-259.413333-218.453334 0-119.466667 116.053333-218.453333 259.413333-218.453333 139.946667 0 259.413333 98.986667 259.413333 218.453333 0 58.026667-37.546667 119.466667-105.813333 174.08-6.826667 6.826667-10.24 17.066667-10.24 23.893334z" fill="#cccccc" p-id="6425"></path><path d="M607.573333 494.933333c-17.066667 0-34.133333 17.066667-34.133333 34.133334s17.066667 34.133333 34.133333 34.133333c23.893333 0 40.96-17.066667 40.96-34.133333s-17.066667-34.133333-40.96-34.133334zM785.066667 494.933333c-17.066667 0-34.133333 17.066667-34.133334 34.133334s17.066667 34.133333 34.133334 34.133333c23.893333 0 40.96-17.066667 40.96-34.133333s-13.653333-34.133333-40.96-34.133334z" fill="#cccccc" p-id="6426"></path></svg>