<?xml version="1.0" standalone="no"?><!DOCTYPE svg PUBLIC "-//W3C//DTD SVG 1.1//EN" "http://www.w3.org/Graphics/SVG/1.1/DTD/svg11.dtd"><svg t="1543371482106" class="icon" style="" viewBox="0 0 1024 1024" version="1.1" xmlns="http://www.w3.org/2000/svg" p-id="10793" xmlns:xlink="http://www.w3.org/1999/xlink" width="200" height="200"><defs><style type="text/css"></style></defs><path d="M951.621079 1024h-98.726603a8.126984 8.126984 0 0 1 0-16.253968H950.857143c4.486095 0 8.500825 3.640889 8.500825 8.126984s-3.250794 8.126984-7.736889 8.126984z m-196.689269 0h-97.962667a8.126984 8.126984 0 0 1 0-16.253968h97.962667a8.126984 8.126984 0 0 1 0 16.253968z m-195.925334 0h-97.946413a8.126984 8.126984 0 0 1 0-16.253968h97.946413a8.126984 8.126984 0 0 1 0 16.253968z m-195.925333 0h-97.962667a8.126984 8.126984 0 0 1 0-16.253968h97.962667a8.126984 8.126984 0 0 1 0 16.253968z m-195.925333 0H73.142857c-1.495365 0-2.974476-0.048762-4.437333-0.146286a8.126984 8.126984 0 0 1 0.975238-16.22146c1.154032 0.065016 2.308063 0.113778 3.462095 0.113778h94.012953a8.126984 8.126984 0 0 1 0 16.253968z m848.635936-61.635048h-0.341333a8.175746 8.175746 0 0 1-7.785651-8.468317L1007.746032 950.857143v-94.581841a8.126984 8.126984 0 0 1 16.253968 0l-0.08127 98.320254a8.126984 8.126984 0 0 1-8.126984 7.769396zM8.126984 959.081651a8.045714 8.045714 0 0 1-8.126984-8.029461v-97.962666a8.126984 8.126984 0 0 1 16.253968 0V950.857143a8.208254 8.208254 0 0 1-8.126984 8.224508z m1007.746032-192.658286a8.126984 8.126984 0 0 1-8.126984-8.126984v-97.946413a8.126984 8.126984 0 0 1 16.253968 0v97.946413a8.126984 8.126984 0 0 1-8.126984 8.126984z m-1007.746032-3.169524a8.126984 8.126984 0 0 1-8.126984-8.126984v-97.962667a8.126984 8.126984 0 0 1 16.253968 0v97.962667a8.126984 8.126984 0 0 1-8.126984 8.126984z m1007.746032-192.739555a8.126984 8.126984 0 0 1-8.126984-8.126984v-97.962667a8.126984 8.126984 0 0 1 16.253968 0V562.387302a8.126984 8.126984 0 0 1-8.126984 8.126984z m-1007.746032-3.202032a8.126984 8.126984 0 0 1-8.126984-8.126984v-97.946413a8.126984 8.126984 0 0 1 16.253968 0v97.946413a8.126984 8.126984 0 0 1-8.126984 8.126984z m1007.746032-192.723302a8.126984 8.126984 0 0 1-8.126984-8.126984v-97.962666a8.126984 8.126984 0 0 1 16.253968 0v97.962666a8.126984 8.126984 0 0 1-8.126984 8.126984z m-1007.746032-3.185777a8.126984 8.126984 0 0 1-8.126984-8.126985v-97.962666a8.126984 8.126984 0 0 1 16.253968 0v97.962666a8.126984 8.126984 0 0 1-8.126984 8.126985z m1007.746032-192.739556a8.126984 8.126984 0 0 1-8.126984-8.126984V73.142857c0-4.486095 3.640889-8.419556 8.126984-8.419555s8.126984 3.348317 8.126984 7.850666v97.962667a8.126984 8.126984 0 0 1-8.126984 8.126984z m-1007.746032-3.185778a8.126984 8.126984 0 0 1-8.126984-8.126984V73.142857c0-1.414095 0.048762-2.82819 0.130032-4.226032a8.27327 8.27327 0 0 1 8.582095-7.639365 8.126984 8.126984 0 0 1 7.639365 8.582096A54.938413 54.938413 0 0 0 16.253968 73.142857v94.208a8.126984 8.126984 0 0 1-8.126984 8.126984z m946.306032-159.126349h-0.422603A51.460063 51.460063 0 0 0 950.857143 16.253968h-94.403048a8.126984 8.126984 0 0 1 0-16.253968H950.857143c1.332825 0 2.665651 0.032508 3.998476 0.097524a8.126984 8.126984 0 0 1-0.422603 16.253968zM758.491429 16.253968h-97.946413a8.126984 8.126984 0 0 1 0-16.253968h97.946413a8.126984 8.126984 0 0 1 0 16.253968zM562.566095 16.253968h-97.962666a8.126984 8.126984 0 0 1 0-16.253968h97.962666a8.126984 8.126984 0 0 1 0 16.253968zM366.657016 16.253968H268.678095a8.126984 8.126984 0 0 1 0-16.253968h97.962667a8.126984 8.126984 0 0 1 0.016254 16.253968zM170.715429 16.253968H73.142857c-4.486095 0-8.322032-3.640889-8.322032-8.126984S68.266667 0 72.769016 0h97.962667a8.126984 8.126984 0 1 1-0.016254 16.253968z" fill="#C9C9CA" p-id="10794"></path><path d="M788.31746 398.222222h-552.63492a16.253968 16.253968 0 0 1 0-32.507936h552.63492a16.253968 16.253968 0 1 1 0 32.507936z" fill="#C9C9CA" p-id="10795"></path><path d="M512 674.539683a16.253968 16.253968 0 0 1-16.253968-16.253969v-552.63492a16.253968 16.253968 0 0 1 32.507936 0v552.63492a16.253968 16.253968 0 0 1-16.253968 16.253969z" fill="#C9C9CA" p-id="10796"></path><path d="M220.192508 767.739937v32.004063h43.430603c10.15873 0 19.813587-0.260063 28.948318-0.763937v16.757842a615.115175 615.115175 0 0 0-30.476191-0.763937h-41.90273v76.946286h60.188444c7.623111 0 16.497778-0.260063 26.672762-0.763937v15.993905a515.15327 515.15327 0 0 0-26.672762-0.763936H160.004063c-8.126984 0-17.277968 0.260063-27.436698 0.763936v-15.993905c9.638603 0.503873 18.789587 0.763937 27.436698 0.763937h44.19454V768.487619c0-7.623111-0.260063-15.993905-0.763936-25.144889h17.521777a421.692952 421.692952 0 0 0-0.763936 24.397207zM367.242159 783.750095v97.52381c0 11.686603 0.260063 22.60927 0.763936 32.768H351.248254c1.024-8.126984 1.527873-18.789587 1.527873-32.004064v-75.434666c-7.623111 12.190476-13.978413 21.845333-19.049651 28.948317-2.031746-4.063492-5.591365-8.126984-10.662603-12.190476 6.095238-7.119238 13.458286-18.025651 22.089143-32.768 8.630857-14.726095 15.750095-31.50019 21.34146-50.289778 4.567365 2.535619 10.662603 5.591365 18.285714 9.150984-4.079746 4.063492-9.914921 15.506286-17.538031 34.295873z m117.337397 54.093207a2501.843302 2501.843302 0 0 1-24.380953 52.565333c5.591365 3.055746 13.214476 7.623111 22.85308 13.718349a98.921651 98.921651 0 0 0-9.898667 14.482286c-8.630857-6.095238-19.943619-13.084444-33.905778-20.951365s-23.747048-13.084444-29.338413-15.620064c2.535619-4.567365 4.827429-8.890921 6.859175-12.954412 6.599111 3.055746 16.757841 7.866921 30.47619 14.482285 5.087492-10.15873 9.898667-21.081397 14.482286-32.768H402.285714c3.055746-9.150984 6.355302-20.31746 9.898667-33.531936h-16.757841c-7.623111 0-14.222222 0.260063-19.813588 0.763936v-13.718349c6.599111 0.503873 13.458286 0.763937 20.577524 0.763937H414.47619c2.031746-9.654857 3.559619-17.521778 4.567366-23.617016h-11.42654c-9.150984 0-16.514032 0.260063-22.089143 0.763936v-13.718349c6.095238 0.503873 13.214476 0.763937 21.34146 0.763937h14.482286c2.031746-14.726095 3.055746-24.884825 3.055746-30.476191 6.599111 1.527873 12.45054 2.535619 17.521778 3.055746-1.527873 2.535619-3.803429 11.686603-6.859175 27.436698h32.768c8.126984 0 15.750095-0.260063 22.85308-0.763936v13.718349a315.912127 315.912127 0 0 0-23.617016-0.763936h-33.531937c-1.024 5.591365-2.535619 13.458286-4.567365 23.617016h47.997968c10.15873 0 18.025651-0.260063 23.617016-0.763937v13.718349a297.138794 297.138794 0 0 0-23.617016-0.763936H426.666667c-2.031746 8.126984-3.803429 14.986159-5.331302 20.577524h63.244191zM687.997968 788.31746v81.529905c0 15.750095 0.260063 31.240127 0.763937 46.470095h-15.246222v-9.898666h-127.236064v11.426539h-15.246222c0.503873-15.750095 0.763937-32.004063 0.763936-48.761904V788.31746c0-14.726095-0.260063-28.704508-0.763936-41.90273h157.712254c-0.487619 12.694349-0.747683 26.672762-0.747683 41.90273z m-14.466031 105.146921v-134.859175H546.295873v134.859175h127.236064z m-71.631239-115.045587h51.053715c-2.031746 4.567365-5.331302 10.15873-9.898667 16.757841s-11.686603 14.482286-21.34146 23.617016c15.246222 7.623111 30.216127 12.190476 44.958476 13.718349a86.79619 86.79619 0 0 0-9.150984 14.482286c-18.789587-5.591365-34.539683-12.45054-47.234032-20.577524a165.091556 165.091556 0 0 1-47.234032 21.34146 33.434413 33.434413 0 0 0-8.387047-12.954412c16.253968-2.535619 31.240127-7.866921 44.958476-15.993905-7.119238-6.599111-12.190476-12.190476-15.246222-16.757842-4.567365 5.087492-9.394794 10.15873-14.482286 15.246223a37.871746 37.871746 0 0 0-11.42654-9.150984c8.630857-7.119238 15.993905-15.11619 22.089143-24.007112s10.418794-16.384 12.954413-22.479238a128.893968 128.893968 0 0 0 16.757841 6.859175c-3.039492 3.039492-5.818921 6.339048-8.370794 9.898667z m35.05981 97.523809c-2.535619 4.063492-5.087492 8.387048-7.623111 12.954413-20.821333-8.630857-36.831492-14.222222-47.997968-16.757841 2.031746-4.063492 3.803429-8.387048 5.331301-12.954413 22.349206 6.599111 39.107048 12.174222 50.289778 16.757841z m-25.144889-64.772063c6.599111-5.087492 12.694349-11.930413 18.285714-20.577524h-36.571428l-1.527873 2.291809c7.623111 8.647111 14.222222 14.742349 19.813587 18.285715z m24.380952 38.099301c-2.535619 4.063492-4.827429 8.630857-6.859174 13.718349-17.277968-8.126984-28.948317-13.214476-35.043556-15.246222 2.535619-3.559619 4.827429-7.623111 6.859175-12.190476 17.261714 7.119238 28.948317 11.686603 35.043555 13.718349zM763.432635 792.884825h60.188444c0-28.444444-0.260063-46.470095-0.763936-54.093206h17.521778c-0.503873 7.623111-0.763937 25.648762-0.763937 54.093206 19.309714 0 34.539683-0.260063 45.722413-0.763936v13.718349a612.774603 612.774603 0 0 0-24.380953-0.763936h-97.523809c0 9.654857-0.260063 19.813587-0.763937 30.47619h92.956445c-0.503873 11.686603-0.763937 24.884825-0.763937 39.627175s0.260063 28.444444 0.763937 41.138793H838.867302c0.503873-12.190476 0.763937-34.799746 0.763936-67.811555h-78.474159c-1.527873 10.662603-4.827429 22.60927-9.898666 35.807492s-10.922667 23.877079-17.521778 32.004063c-2.535619-4.063492-7.866921-7.119238-15.993905-9.150984 8.630857-10.15873 15.11619-21.081397 19.423492-32.768s7.233016-24.250921 8.760889-37.709206 2.29181-27.81054 2.29181-43.040508-0.260063-32.247873-0.763937-51.053714c5.087492 0.503873 10.922667 1.024 17.521778 1.527873-1.040254 7.119238-1.544127 23.373206-1.544127 48.761904z" fill="#C9C9CA" p-id="10797"></path></svg>